<svg width="47" height="46" viewBox="0 0 47 46" fill="none" xmlns="http://www.w3.org/2000/svg">
<rect x="0.358398" y="0.0522461" width="45.8957" height="45.8957" rx="13.7687" fill="#E09A33"/>
<path d="M30.9553 31.6056V29.6933C30.9553 28.6789 30.5524 27.7061 29.8351 26.9889C29.1178 26.2716 28.145 25.8687 27.1307 25.8687H19.4814C18.467 25.8687 17.4942 26.2716 16.777 26.9889C16.0597 27.7061 15.6567 28.6789 15.6567 29.6933V31.6056" stroke="white" stroke-width="1.72109" stroke-linecap="round" stroke-linejoin="round"/>
<path d="M23.3063 22.0438C25.4186 22.0438 27.131 20.3315 27.131 18.2192C27.131 16.1069 25.4186 14.3945 23.3063 14.3945C21.194 14.3945 19.4817 16.1069 19.4817 18.2192C19.4817 20.3315 21.194 22.0438 23.3063 22.0438Z" stroke="white" stroke-width="1.72109" stroke-linecap="round" stroke-linejoin="round"/>
</svg>
